<?xml version="1.0" encoding="UTF-8" standalone="no"?><svg xmlns="http://www.w3.org/2000/svg" xmlns:xlink="http://www.w3.org/1999/xlink" contentScriptType="application/ecmascript" contentStyleType="text/css" height="592px" preserveAspectRatio="none" style="width:643px;height:592px;" version="1.1" viewBox="0 0 643 592" width="643px" zoomAndPan="magnify"><defs><filter height="300%" id="f1p3qkfqigb2m0" width="300%" x="-1" y="-1"><feGaussianBlur result="blurOut" stdDeviation="2.0"/><feColorMatrix in="blurOut" result="blurOut2" type="matrix" values="0 0 0 0 0 0 0 0 0 0 0 0 0 0 0 0 0 0 .4 0"/><feOffset dx="4.0" dy="4.0" in="blurOut2" result="blurOut3"/><feBlend in="SourceGraphic" in2="blurOut3" mode="normal"/></filter></defs><g><ellipse cx="97" cy="48.6982" fill="#000000" filter="url(#f1p3qkfqigb2m0)" rx="10" ry="10" style="stroke:none;stroke-width:1.0;"/><rect fill="#FEFECE" filter="url(#f1p3qkfqigb2m0)" height="33.9688" rx="12.5" ry="12.5" style="stroke:#A80036;stroke-width:1.5;" width="80" x="57" y="78.6982"/><text fill="#000000" font-family="sans-serif" font-size="12" lengthAdjust="spacingAndGlyphs" textLength="60" x="67" y="99.8369">扫描二维码</text><rect fill="#FEFECE" filter="url(#f1p3qkfqigb2m0)" height="33.9688" rx="12.5" ry="12.5" style="stroke:#A80036;stroke-width:1.5;" width="152" x="21" y="438.8506"/><text fill="#000000" font-family="sans-serif" font-size="12" lengthAdjust="spacingAndGlyphs" textLength="132" x="31" y="459.9893">按下被点亮灯的楼层按键</text><line style="stroke:#000000;stroke-width:2.0;" x1="15" x2="15" y1="12.7451" y2="580.7881"/><rect fill="#FAEBD7" height="568.043" style="stroke:#FAEBD7;stroke-width:1.0;" width="132" x="183" y="12.7451"/><rect fill="#FEFECE" filter="url(#f1p3qkfqigb2m0)" height="47.9375" rx="12.5" ry="12.5" style="stroke:#A80036;stroke-width:1.5;" width="116" x="189" y="132.667"/><text fill="#000000" font-family="sans-serif" font-size="12" lengthAdjust="spacingAndGlyphs" textLength="84" x="199" y="153.8057">读取二维码信息</text><text fill="#000000" font-family="sans-serif" font-size="12" lengthAdjust="spacingAndGlyphs" textLength="96" x="199" y="167.7744">发送到电梯服务器</text><line style="stroke:#000000;stroke-width:2.0;" x1="183" x2="183" y1="12.7451" y2="580.7881"/><rect fill="#FEFECE" filter="url(#f1p3qkfqigb2m0)" height="47.9375" rx="12.5" ry="12.5" style="stroke:#A80036;stroke-width:1.5;" width="116" x="321" y="200.6045"/><text fill="#000000" font-family="sans-serif" font-size="12" lengthAdjust="spacingAndGlyphs" textLength="84" x="331" y="221.7432">通过二维码信息</text><text fill="#000000" font-family="sans-serif" font-size="12" lengthAdjust="spacingAndGlyphs" textLength="96" x="331" y="235.7119">查找可控楼层数组</text><rect fill="#FEFECE" filter="url(#f1p3qkfqigb2m0)" height="47.9375" rx="12.5" ry="12.5" style="stroke:#A80036;stroke-width:1.5;" width="116" x="321" y="316.9443"/><text fill="#000000" font-family="sans-serif" font-size="12" lengthAdjust="spacingAndGlyphs" textLength="96" x="331" y="338.083">调用电梯控制SDK</text><text fill="#000000" font-family="sans-serif" font-size="12" lengthAdjust="spacingAndGlyphs" textLength="96" x="331" y="352.0518">发送可控楼层数组</text><polygon fill="#FEFECE" filter="url(#f1p3qkfqigb2m0)" points="348.5,268.542,409.5,268.542,421.5,280.542,409.5,292.542,348.5,292.542,336.5,280.542,348.5,268.542" style="stroke:#A80036;stroke-width:1.5;"/><text fill="#000000" font-family="sans-serif" font-size="11" lengthAdjust="spacingAndGlyphs" textLength="21" x="383" y="302.7524">Yes</text><text fill="#000000" font-family="sans-serif" font-size="11" lengthAdjust="spacingAndGlyphs" textLength="61" x="348.5" y="284.3501">数组不为空?</text><text fill="#000000" font-family="sans-serif" font-size="11" lengthAdjust="spacingAndGlyphs" textLength="15" x="421.5" y="277.9478">No</text><ellipse cx="458.5" cy="280.542" fill="#FFFFFF" filter="url(#f1p3qkfqigb2m0)" rx="11" ry="11" style="stroke:#000000;stroke-width:1.0;"/><ellipse cx="458.5" cy="280.542" fill="#000000" rx="6" ry="6" style="stroke:#7F7F7F;stroke-width:1.0;"/><line style="stroke:#000000;stroke-width:2.0;" x1="315" x2="315" y1="12.7451" y2="580.7881"/><rect fill="#FAEBD7" height="568.043" style="stroke:#FAEBD7;stroke-width:1.0;" width="144" x="479.5" y="12.7451"/><rect fill="#FEFECE" filter="url(#f1p3qkfqigb2m0)" height="33.9688" rx="12.5" ry="12.5" style="stroke:#A80036;stroke-width:1.5;" width="128" x="485.5" y="384.8818"/><text fill="#000000" font-family="sans-serif" font-size="12" lengthAdjust="spacingAndGlyphs" textLength="108" x="495.5" y="406.0205">点亮可控楼层灯按键</text><rect fill="#FEFECE" filter="url(#f1p3qkfqigb2m0)" height="33.9688" rx="12.5" ry="12.5" style="stroke:#A80036;stroke-width:1.5;" width="128" x="485.5" y="492.8193"/><text fill="#000000" font-family="sans-serif" font-size="12" lengthAdjust="spacingAndGlyphs" textLength="108" x="495.5" y="513.958">控制电梯到选定楼层</text><ellipse cx="549.5" cy="557.7881" fill="#FFFFFF" filter="url(#f1p3qkfqigb2m0)" rx="11" ry="11" style="stroke:#000000;stroke-width:1.0;"/><ellipse cx="549.5" cy="557.7881" fill="#000000" rx="6" ry="6" style="stroke:#7F7F7F;stroke-width:1.0;"/><line style="stroke:#000000;stroke-width:2.0;" x1="479.5" x2="479.5" y1="12.7451" y2="580.7881"/><line style="stroke:#000000;stroke-width:2.0;" x1="623.5" x2="623.5" y1="12.7451" y2="580.7881"/><line style="stroke:#A80036;stroke-width:1.5;" x1="97" x2="97" y1="58.6982" y2="78.6982"/><polygon fill="#A80036" points="93,68.6982,97,78.6982,101,68.6982,97,72.6982" style="stroke:#A80036;stroke-width:1.0;"/><line style="stroke:#A80036;stroke-width:1.5;" x1="379" x2="379" y1="292.542" y2="316.9443"/><polygon fill="#A80036" points="375,306.9443,379,316.9443,383,306.9443,379,310.9443" style="stroke:#A80036;stroke-width:1.0;"/><line style="stroke:#A80036;stroke-width:1.5;" x1="421.5" x2="447.5" y1="280.542" y2="280.542"/><polygon fill="#A80036" points="437.5,276.542,447.5,280.542,437.5,284.542,441.5,280.542" style="stroke:#A80036;stroke-width:1.0;"/><line style="stroke:#A80036;stroke-width:1.5;" x1="379" x2="379" y1="248.542" y2="268.542"/><polygon fill="#A80036" points="375,258.542,379,268.542,383,258.542,379,262.542" style="stroke:#A80036;stroke-width:1.0;"/><line style="stroke:#A80036;stroke-width:1.5;" x1="549.5" x2="549.5" y1="526.7881" y2="546.7881"/><polygon fill="#A80036" points="545.5,536.7881,549.5,546.7881,553.5,536.7881,549.5,540.7881" style="stroke:#A80036;stroke-width:1.0;"/><line style="stroke:#A80036;stroke-width:1.5;" x1="97" x2="97" y1="112.667" y2="117.667"/><line style="stroke:#A80036;stroke-width:1.5;" x1="97" x2="247" y1="117.667" y2="117.667"/><line style="stroke:#A80036;stroke-width:1.5;" x1="247" x2="247" y1="117.667" y2="132.667"/><polygon fill="#A80036" points="243,122.667,247,132.667,251,122.667,247,126.667" style="stroke:#A80036;stroke-width:1.0;"/><line style="stroke:#A80036;stroke-width:1.5;" x1="247" x2="247" y1="180.6045" y2="185.6045"/><line style="stroke:#A80036;stroke-width:1.5;" x1="247" x2="379" y1="185.6045" y2="185.6045"/><line style="stroke:#A80036;stroke-width:1.5;" x1="379" x2="379" y1="185.6045" y2="200.6045"/><polygon fill="#A80036" points="375,190.6045,379,200.6045,383,190.6045,379,194.6045" style="stroke:#A80036;stroke-width:1.0;"/><line style="stroke:#A80036;stroke-width:1.5;" x1="379" x2="379" y1="364.8818" y2="369.8818"/><line style="stroke:#A80036;stroke-width:1.5;" x1="379" x2="549.5" y1="369.8818" y2="369.8818"/><line style="stroke:#A80036;stroke-width:1.5;" x1="549.5" x2="549.5" y1="369.8818" y2="384.8818"/><polygon fill="#A80036" points="545.5,374.8818,549.5,384.8818,553.5,374.8818,549.5,378.8818" style="stroke:#A80036;stroke-width:1.0;"/><line style="stroke:#A80036;stroke-width:1.5;" x1="549.5" x2="549.5" y1="418.8506" y2="423.8506"/><line style="stroke:#A80036;stroke-width:1.5;" x1="549.5" x2="97" y1="423.8506" y2="423.8506"/><line style="stroke:#A80036;stroke-width:1.5;" x1="97" x2="97" y1="423.8506" y2="438.8506"/><polygon fill="#A80036" points="93,428.8506,97,438.8506,101,428.8506,97,432.8506" style="stroke:#A80036;stroke-width:1.0;"/><line style="stroke:#A80036;stroke-width:1.5;" x1="97" x2="97" y1="472.8193" y2="477.8193"/><line style="stroke:#A80036;stroke-width:1.5;" x1="97" x2="549.5" y1="477.8193" y2="477.8193"/><line style="stroke:#A80036;stroke-width:1.5;" x1="549.5" x2="549.5" y1="477.8193" y2="492.8193"/><polygon fill="#A80036" points="545.5,482.8193,549.5,492.8193,553.5,482.8193,549.5,486.8193" style="stroke:#A80036;stroke-width:1.0;"/><text fill="#000000" font-family="sans-serif" font-size="18" lengthAdjust="spacingAndGlyphs" textLength="36" x="81" y="29.4531">用户</text><text fill="#000000" font-family="sans-serif" font-size="18" lengthAdjust="spacingAndGlyphs" textLength="108" x="195" y="29.4531">二维码扫描器</text><text fill="#000000" font-family="sans-serif" font-size="18" lengthAdjust="spacingAndGlyphs" textLength="90" x="352.25" y="29.4531">电梯服务器</text><text fill="#000000" font-family="sans-serif" font-size="18" lengthAdjust="spacingAndGlyphs" textLength="90" x="506.5" y="29.4531">电梯控制器</text><!--MD5=[2a16bb3f1980fd9a2b790112d5e1812d]
@startuml qrcode
|用户|
start
:扫描二维码;
|#AntiqueWhite|二维码扫描器|
:读取二维码信息
发送到电梯服务器;
|电梯服务器|
:通过二维码信息
查找可控楼层数组;
if (数组不为空?) then (No)
  stop
else (Yes)
  :调用电梯控制SDK
  发送可控楼层数组;
  |#AntiqueWhite|电梯控制器|
  :点亮可控楼层灯按键;
  |用户|
  :按下被点亮灯的楼层按键;
  |#AntiqueWhite|电梯控制器|
  :控制电梯到选定楼层;
  stop
endif
@enduml

PlantUML version 1.2020.22(Sun Dec 06 09:36:27 UTC 2020)
(GPL source distribution)
Java Runtime: OpenJDK Runtime Environment
JVM: OpenJDK 64-Bit Server VM
Default Encoding: UTF-8
Language: en
Country: null
--></g></svg>