<?xml version="1.0" encoding="UTF-8" standalone="no"?><svg xmlns="http://www.w3.org/2000/svg" xmlns:xlink="http://www.w3.org/1999/xlink" contentScriptType="application/ecmascript" contentStyleType="text/css" height="753px" preserveAspectRatio="none" style="width:683px;height:753px;" version="1.1" viewBox="0 0 683 753" width="683px" zoomAndPan="magnify"><defs><filter height="300%" id="f1a7vygp5ln0ui" width="300%" x="-1" y="-1"><feGaussianBlur result="blurOut" stdDeviation="2.0"/><feColorMatrix in="blurOut" result="blurOut2" type="matrix" values="0 0 0 0 0 0 0 0 0 0 0 0 0 0 0 0 0 0 .4 0"/><feOffset dx="4.0" dy="4.0" in="blurOut2" result="blurOut3"/><feBlend in="SourceGraphic" in2="blurOut3" mode="normal"/></filter></defs><g><rect fill="#FEFECE" filter="url(#f1a7vygp5ln0ui)" height="47.9375" rx="12.5" ry="12.5" style="stroke:#A80036;stroke-width:1.5;" width="140" x="21" y="416.4795"/><text fill="#000000" font-family="sans-serif" font-size="12" lengthAdjust="spacingAndGlyphs" textLength="108" x="31" y="437.6182">如果用户可以点击并</text><text fill="#000000" font-family="sans-serif" font-size="12" lengthAdjust="spacingAndGlyphs" textLength="120" x="31" y="451.5869">按下App中的楼层按钮</text><line style="stroke:#000000;stroke-width:2.0;" x1="15" x2="15" y1="12.7451" y2="736.2607"/><rect fill="#FAEBD7" height="723.5156" style="stroke:#FAEBD7;stroke-width:1.0;" width="132" x="171" y="12.7451"/><ellipse cx="235" cy="48.6982" fill="#000000" filter="url(#f1a7vygp5ln0ui)" rx="10" ry="10" style="stroke:none;stroke-width:1.0;"/><rect fill="#FEFECE" filter="url(#f1a7vygp5ln0ui)" height="47.9375" rx="12.5" ry="12.5" style="stroke:#A80036;stroke-width:1.5;" width="116" x="177" y="78.6982"/><text fill="#000000" font-family="sans-serif" font-size="12" lengthAdjust="spacingAndGlyphs" textLength="72" x="187" y="99.8369">调用蓝牙模块</text><text fill="#000000" font-family="sans-serif" font-size="12" lengthAdjust="spacingAndGlyphs" textLength="96" x="187" y="113.8057">用户可控楼层数组</text><rect fill="#FEFECE" filter="url(#f1a7vygp5ln0ui)" height="33.9688" rx="12.5" ry="12.5" style="stroke:#A80036;stroke-width:1.5;" width="80" x="195" y="362.5107"/><text fill="#000000" font-family="sans-serif" font-size="12" lengthAdjust="spacingAndGlyphs" textLength="60" x="205" y="383.6494">展示给用户</text><rect fill="#FEFECE" filter="url(#f1a7vygp5ln0ui)" height="33.9688" rx="12.5" ry="12.5" style="stroke:#A80036;stroke-width:1.5;" width="92" x="189" y="484.417"/><text fill="#000000" font-family="sans-serif" font-size="12" lengthAdjust="spacingAndGlyphs" textLength="72" x="199" y="505.5557">调用蓝牙模块</text><line style="stroke:#000000;stroke-width:2.0;" x1="171" x2="171" y1="12.7451" y2="736.2607"/><rect fill="#FEFECE" filter="url(#f1a7vygp5ln0ui)" height="33.9688" rx="12.5" ry="12.5" style="stroke:#A80036;stroke-width:1.5;" width="68" x="309" y="146.6357"/><text fill="#000000" font-family="sans-serif" font-size="12" lengthAdjust="spacingAndGlyphs" textLength="48" x="319" y="167.7744">转发后台</text><rect fill="#FEFECE" filter="url(#f1a7vygp5ln0ui)" height="33.9688" rx="12.5" ry="12.5" style="stroke:#A80036;stroke-width:1.5;" width="68" x="309" y="308.542"/><text fill="#000000" font-family="sans-serif" font-size="12" lengthAdjust="spacingAndGlyphs" textLength="48" x="319" y="329.6807">转发App</text><rect fill="#FEFECE" filter="url(#f1a7vygp5ln0ui)" height="33.9688" rx="12.5" ry="12.5" style="stroke:#A80036;stroke-width:1.5;" width="68" x="309" y="538.3857"/><text fill="#000000" font-family="sans-serif" font-size="12" lengthAdjust="spacingAndGlyphs" textLength="48" x="319" y="559.5244">转发后台</text><line style="stroke:#000000;stroke-width:2.0;" x1="303" x2="303" y1="12.7451" y2="736.2607"/><rect fill="#FAEBD7" height="723.5156" style="stroke:#FAEBD7;stroke-width:1.0;" width="132" x="387" y="12.7451"/><rect fill="#FEFECE" filter="url(#f1a7vygp5ln0ui)" height="33.9688" rx="12.5" ry="12.5" style="stroke:#A80036;stroke-width:1.5;" width="116" x="393" y="200.6045"/><text fill="#000000" font-family="sans-serif" font-size="12" lengthAdjust="spacingAndGlyphs" textLength="96" x="403" y="221.7432">返回可控楼层数组</text><rect fill="#FEFECE" filter="url(#f1a7vygp5ln0ui)" height="33.9688" rx="12.5" ry="12.5" style="stroke:#A80036;stroke-width:1.5;" width="92" x="405" y="254.5732"/><text fill="#000000" font-family="sans-serif" font-size="12" lengthAdjust="spacingAndGlyphs" textLength="72" x="415" y="275.7119">转发蓝牙模块</text><rect fill="#FEFECE" filter="url(#f1a7vygp5ln0ui)" height="47.9375" rx="12.5" ry="12.5" style="stroke:#A80036;stroke-width:1.5;" width="116" x="393" y="592.3545"/><text fill="#000000" font-family="sans-serif" font-size="12" lengthAdjust="spacingAndGlyphs" textLength="96" x="403" y="613.4932">调用电梯控制SDK</text><text fill="#000000" font-family="sans-serif" font-size="12" lengthAdjust="spacingAndGlyphs" textLength="72" x="403" y="627.4619">发送控制指令</text><line style="stroke:#000000;stroke-width:2.0;" x1="387" x2="387" y1="12.7451" y2="736.2607"/><rect fill="#FEFECE" filter="url(#f1a7vygp5ln0ui)" height="33.9688" rx="12.5" ry="12.5" style="stroke:#A80036;stroke-width:1.5;" width="128" x="525" y="660.292"/><text fill="#000000" font-family="sans-serif" font-size="12" lengthAdjust="spacingAndGlyphs" textLength="108" x="535" y="681.4307">控制电梯到选定楼层</text><ellipse cx="589" cy="725.2607" fill="#FFFFFF" filter="url(#f1a7vygp5ln0ui)" rx="11" ry="11" style="stroke:#000000;stroke-width:1.0;"/><ellipse cx="589" cy="725.2607" fill="#000000" rx="6" ry="6" style="stroke:#7F7F7F;stroke-width:1.0;"/><line style="stroke:#000000;stroke-width:2.0;" x1="519" x2="519" y1="12.7451" y2="736.2607"/><line style="stroke:#000000;stroke-width:2.0;" x1="663" x2="663" y1="12.7451" y2="736.2607"/><line style="stroke:#A80036;stroke-width:1.5;" x1="235" x2="235" y1="58.6982" y2="78.6982"/><polygon fill="#A80036" points="231,68.6982,235,78.6982,239,68.6982,235,72.6982" style="stroke:#A80036;stroke-width:1.0;"/><line style="stroke:#A80036;stroke-width:1.5;" x1="451" x2="451" y1="234.5732" y2="254.5732"/><polygon fill="#A80036" points="447,244.5732,451,254.5732,455,244.5732,451,248.5732" style="stroke:#A80036;stroke-width:1.0;"/><line style="stroke:#A80036;stroke-width:1.5;" x1="589" x2="589" y1="694.2607" y2="714.2607"/><polygon fill="#A80036" points="585,704.2607,589,714.2607,593,704.2607,589,708.2607" style="stroke:#A80036;stroke-width:1.0;"/><line style="stroke:#A80036;stroke-width:1.5;" x1="235" x2="235" y1="126.6357" y2="131.6357"/><line style="stroke:#A80036;stroke-width:1.5;" x1="235" x2="343" y1="131.6357" y2="131.6357"/><line style="stroke:#A80036;stroke-width:1.5;" x1="343" x2="343" y1="131.6357" y2="146.6357"/><polygon fill="#A80036" points="339,136.6357,343,146.6357,347,136.6357,343,140.6357" style="stroke:#A80036;stroke-width:1.0;"/><line style="stroke:#A80036;stroke-width:1.5;" x1="343" x2="343" y1="180.6045" y2="185.6045"/><line style="stroke:#A80036;stroke-width:1.5;" x1="343" x2="451" y1="185.6045" y2="185.6045"/><line style="stroke:#A80036;stroke-width:1.5;" x1="451" x2="451" y1="185.6045" y2="200.6045"/><polygon fill="#A80036" points="447,190.6045,451,200.6045,455,190.6045,451,194.6045" style="stroke:#A80036;stroke-width:1.0;"/><line style="stroke:#A80036;stroke-width:1.5;" x1="451" x2="451" y1="288.542" y2="293.542"/><line style="stroke:#A80036;stroke-width:1.5;" x1="451" x2="343" y1="293.542" y2="293.542"/><line style="stroke:#A80036;stroke-width:1.5;" x1="343" x2="343" y1="293.542" y2="308.542"/><polygon fill="#A80036" points="339,298.542,343,308.542,347,298.542,343,302.542" style="stroke:#A80036;stroke-width:1.0;"/><line style="stroke:#A80036;stroke-width:1.5;" x1="343" x2="343" y1="342.5107" y2="347.5107"/><line style="stroke:#A80036;stroke-width:1.5;" x1="343" x2="235" y1="347.5107" y2="347.5107"/><line style="stroke:#A80036;stroke-width:1.5;" x1="235" x2="235" y1="347.5107" y2="362.5107"/><polygon fill="#A80036" points="231,352.5107,235,362.5107,239,352.5107,235,356.5107" style="stroke:#A80036;stroke-width:1.0;"/><line style="stroke:#A80036;stroke-width:1.5;" x1="235" x2="235" y1="396.4795" y2="401.4795"/><line style="stroke:#A80036;stroke-width:1.5;" x1="235" x2="91" y1="401.4795" y2="401.4795"/><line style="stroke:#A80036;stroke-width:1.5;" x1="91" x2="91" y1="401.4795" y2="416.4795"/><polygon fill="#A80036" points="87,406.4795,91,416.4795,95,406.4795,91,410.4795" style="stroke:#A80036;stroke-width:1.0;"/><line style="stroke:#A80036;stroke-width:1.5;" x1="91" x2="91" y1="464.417" y2="469.417"/><line style="stroke:#A80036;stroke-width:1.5;" x1="91" x2="235" y1="469.417" y2="469.417"/><line style="stroke:#A80036;stroke-width:1.5;" x1="235" x2="235" y1="469.417" y2="484.417"/><polygon fill="#A80036" points="231,474.417,235,484.417,239,474.417,235,478.417" style="stroke:#A80036;stroke-width:1.0;"/><line style="stroke:#A80036;stroke-width:1.5;" x1="235" x2="235" y1="518.3857" y2="523.3857"/><line style="stroke:#A80036;stroke-width:1.5;" x1="235" x2="343" y1="523.3857" y2="523.3857"/><line style="stroke:#A80036;stroke-width:1.5;" x1="343" x2="343" y1="523.3857" y2="538.3857"/><polygon fill="#A80036" points="339,528.3857,343,538.3857,347,528.3857,343,532.3857" style="stroke:#A80036;stroke-width:1.0;"/><line style="stroke:#A80036;stroke-width:1.5;" x1="343" x2="343" y1="572.3545" y2="577.3545"/><line style="stroke:#A80036;stroke-width:1.5;" x1="343" x2="451" y1="577.3545" y2="577.3545"/><line style="stroke:#A80036;stroke-width:1.5;" x1="451" x2="451" y1="577.3545" y2="592.3545"/><polygon fill="#A80036" points="447,582.3545,451,592.3545,455,582.3545,451,586.3545" style="stroke:#A80036;stroke-width:1.0;"/><line style="stroke:#A80036;stroke-width:1.5;" x1="451" x2="451" y1="640.292" y2="645.292"/><line style="stroke:#A80036;stroke-width:1.5;" x1="451" x2="589" y1="645.292" y2="645.292"/><line style="stroke:#A80036;stroke-width:1.5;" x1="589" x2="589" y1="645.292" y2="660.292"/><polygon fill="#A80036" points="585,650.292,589,660.292,593,650.292,589,654.292" style="stroke:#A80036;stroke-width:1.0;"/><text fill="#000000" font-family="sans-serif" font-size="18" lengthAdjust="spacingAndGlyphs" textLength="36" x="75" y="29.4531">用户</text><text fill="#000000" font-family="sans-serif" font-size="18" lengthAdjust="spacingAndGlyphs" textLength="34" x="220" y="29.4531">App</text><text fill="#000000" font-family="sans-serif" font-size="18" lengthAdjust="spacingAndGlyphs" textLength="72" x="309" y="29.4531">蓝牙模块</text><text fill="#000000" font-family="sans-serif" font-size="18" lengthAdjust="spacingAndGlyphs" textLength="90" x="408" y="29.4531">电梯服务器</text><text fill="#000000" font-family="sans-serif" font-size="18" lengthAdjust="spacingAndGlyphs" textLength="90" x="546" y="29.4531">电梯控制器</text><!--MD5=[a3615b04349a851f4f6deca59056630a]
@startuml bluetooth
|用户|
|#AntiqueWhite|App|
start
:调用蓝牙模块
用户可控楼层数组;
|蓝牙模块|
:转发后台;
|#AntiqueWhite|电梯服务器|
:返回可控楼层数组;
|电梯服务器|
:转发蓝牙模块;
|蓝牙模块|
:转发App;
|App|
:展示给用户;
|用户|
:如果用户可以点击并
按下App中的楼层按钮;
|App|
:调用蓝牙模块;
|蓝牙模块|
:转发后台;
|电梯服务器|
:调用电梯控制SDK
发送控制指令;
|电梯控制器|
:控制电梯到选定楼层;
stop
@enduml

PlantUML version 1.2020.22(Sun Dec 06 09:36:27 UTC 2020)
(GPL source distribution)
Java Runtime: OpenJDK Runtime Environment
JVM: OpenJDK 64-Bit Server VM
Default Encoding: UTF-8
Language: en
Country: null
--></g></svg>