<?xml version="1.0" encoding="UTF-8" standalone="no"?><svg xmlns="http://www.w3.org/2000/svg" xmlns:xlink="http://www.w3.org/1999/xlink" contentScriptType="application/ecmascript" contentStyleType="text/css" height="592px" preserveAspectRatio="none" style="width:667px;height:592px;" version="1.1" viewBox="0 0 667 592" width="667px" zoomAndPan="magnify"><defs><filter height="300%" id="fiff9x6yybhib" width="300%" x="-1" y="-1"><feGaussianBlur result="blurOut" stdDeviation="2.0"/><feColorMatrix in="blurOut" result="blurOut2" type="matrix" values="0 0 0 0 0 0 0 0 0 0 0 0 0 0 0 0 0 0 .4 0"/><feOffset dx="4.0" dy="4.0" in="blurOut2" result="blurOut3"/><feBlend in="SourceGraphic" in2="blurOut3" mode="normal"/></filter></defs><g><ellipse cx="97" cy="48.6982" fill="#000000" filter="url(#fiff9x6yybhib)" rx="10" ry="10" style="stroke:none;stroke-width:1.0;"/><rect fill="#FEFECE" filter="url(#fiff9x6yybhib)" height="33.9688" rx="12.5" ry="12.5" style="stroke:#A80036;stroke-width:1.5;" width="90" x="52" y="78.6982"/><text fill="#000000" font-family="sans-serif" font-size="12" lengthAdjust="spacingAndGlyphs" textLength="70" x="62" y="99.8369">刷(八达通)卡</text><rect fill="#FEFECE" filter="url(#fiff9x6yybhib)" height="33.9688" rx="12.5" ry="12.5" style="stroke:#A80036;stroke-width:1.5;" width="152" x="21" y="438.8506"/><text fill="#000000" font-family="sans-serif" font-size="12" lengthAdjust="spacingAndGlyphs" textLength="132" x="31" y="459.9893">按下被点亮灯的楼层按键</text><line style="stroke:#000000;stroke-width:2.0;" x1="15" x2="15" y1="12.7451" y2="580.7881"/><rect fill="#FAEBD7" height="568.043" style="stroke:#FAEBD7;stroke-width:1.0;" width="156" x="183" y="12.7451"/><rect fill="#FEFECE" filter="url(#fiff9x6yybhib)" height="47.9375" rx="12.5" ry="12.5" style="stroke:#A80036;stroke-width:1.5;" width="140" x="189" y="132.667"/><text fill="#000000" font-family="sans-serif" font-size="12" lengthAdjust="spacingAndGlyphs" textLength="48" x="199" y="153.8057">读取卡号</text><text fill="#000000" font-family="sans-serif" font-size="12" lengthAdjust="spacingAndGlyphs" textLength="120" x="199" y="167.7744">发送卡号到电梯服务器</text><line style="stroke:#000000;stroke-width:2.0;" x1="183" x2="183" y1="12.7451" y2="580.7881"/><rect fill="#FEFECE" filter="url(#fiff9x6yybhib)" height="47.9375" rx="12.5" ry="12.5" style="stroke:#A80036;stroke-width:1.5;" width="116" x="345" y="200.6045"/><text fill="#000000" font-family="sans-serif" font-size="12" lengthAdjust="spacingAndGlyphs" textLength="48" x="355" y="221.7432">查找卡号</text><text fill="#000000" font-family="sans-serif" font-size="12" lengthAdjust="spacingAndGlyphs" textLength="96" x="355" y="235.7119">返回可控楼层数组</text><rect fill="#FEFECE" filter="url(#fiff9x6yybhib)" height="47.9375" rx="12.5" ry="12.5" style="stroke:#A80036;stroke-width:1.5;" width="116" x="345" y="316.9443"/><text fill="#000000" font-family="sans-serif" font-size="12" lengthAdjust="spacingAndGlyphs" textLength="96" x="355" y="338.083">调用电梯控制SDK</text><text fill="#000000" font-family="sans-serif" font-size="12" lengthAdjust="spacingAndGlyphs" textLength="96" x="355" y="352.0518">发送可控楼层数组</text><polygon fill="#FEFECE" filter="url(#fiff9x6yybhib)" points="372.5,268.542,433.5,268.542,445.5,280.542,433.5,292.542,372.5,292.542,360.5,280.542,372.5,268.542" style="stroke:#A80036;stroke-width:1.5;"/><text fill="#000000" font-family="sans-serif" font-size="11" lengthAdjust="spacingAndGlyphs" textLength="21" x="407" y="302.7524">Yes</text><text fill="#000000" font-family="sans-serif" font-size="11" lengthAdjust="spacingAndGlyphs" textLength="61" x="372.5" y="284.3501">数组不为空?</text><text fill="#000000" font-family="sans-serif" font-size="11" lengthAdjust="spacingAndGlyphs" textLength="15" x="445.5" y="277.9478">No</text><ellipse cx="482.5" cy="280.542" fill="#FFFFFF" filter="url(#fiff9x6yybhib)" rx="11" ry="11" style="stroke:#000000;stroke-width:1.0;"/><ellipse cx="482.5" cy="280.542" fill="#000000" rx="6" ry="6" style="stroke:#7F7F7F;stroke-width:1.0;"/><line style="stroke:#000000;stroke-width:2.0;" x1="339" x2="339" y1="12.7451" y2="580.7881"/><rect fill="#FAEBD7" height="568.043" style="stroke:#FAEBD7;stroke-width:1.0;" width="144" x="503.5" y="12.7451"/><rect fill="#FEFECE" filter="url(#fiff9x6yybhib)" height="33.9688" rx="12.5" ry="12.5" style="stroke:#A80036;stroke-width:1.5;" width="128" x="509.5" y="384.8818"/><text fill="#000000" font-family="sans-serif" font-size="12" lengthAdjust="spacingAndGlyphs" textLength="108" x="519.5" y="406.0205">点亮可控楼层灯按键</text><rect fill="#FEFECE" filter="url(#fiff9x6yybhib)" height="33.9688" rx="12.5" ry="12.5" style="stroke:#A80036;stroke-width:1.5;" width="128" x="509.5" y="492.8193"/><text fill="#000000" font-family="sans-serif" font-size="12" lengthAdjust="spacingAndGlyphs" textLength="108" x="519.5" y="513.958">控制电梯到选定楼层</text><ellipse cx="573.5" cy="557.7881" fill="#FFFFFF" filter="url(#fiff9x6yybhib)" rx="11" ry="11" style="stroke:#000000;stroke-width:1.0;"/><ellipse cx="573.5" cy="557.7881" fill="#000000" rx="6" ry="6" style="stroke:#7F7F7F;stroke-width:1.0;"/><line style="stroke:#000000;stroke-width:2.0;" x1="503.5" x2="503.5" y1="12.7451" y2="580.7881"/><line style="stroke:#000000;stroke-width:2.0;" x1="647.5" x2="647.5" y1="12.7451" y2="580.7881"/><line style="stroke:#A80036;stroke-width:1.5;" x1="97" x2="97" y1="58.6982" y2="78.6982"/><polygon fill="#A80036" points="93,68.6982,97,78.6982,101,68.6982,97,72.6982" style="stroke:#A80036;stroke-width:1.0;"/><line style="stroke:#A80036;stroke-width:1.5;" x1="403" x2="403" y1="292.542" y2="316.9443"/><polygon fill="#A80036" points="399,306.9443,403,316.9443,407,306.9443,403,310.9443" style="stroke:#A80036;stroke-width:1.0;"/><line style="stroke:#A80036;stroke-width:1.5;" x1="445.5" x2="471.5" y1="280.542" y2="280.542"/><polygon fill="#A80036" points="461.5,276.542,471.5,280.542,461.5,284.542,465.5,280.542" style="stroke:#A80036;stroke-width:1.0;"/><line style="stroke:#A80036;stroke-width:1.5;" x1="403" x2="403" y1="248.542" y2="268.542"/><polygon fill="#A80036" points="399,258.542,403,268.542,407,258.542,403,262.542" style="stroke:#A80036;stroke-width:1.0;"/><line style="stroke:#A80036;stroke-width:1.5;" x1="573.5" x2="573.5" y1="526.7881" y2="546.7881"/><polygon fill="#A80036" points="569.5,536.7881,573.5,546.7881,577.5,536.7881,573.5,540.7881" style="stroke:#A80036;stroke-width:1.0;"/><line style="stroke:#A80036;stroke-width:1.5;" x1="97" x2="97" y1="112.667" y2="117.667"/><line style="stroke:#A80036;stroke-width:1.5;" x1="97" x2="259" y1="117.667" y2="117.667"/><line style="stroke:#A80036;stroke-width:1.5;" x1="259" x2="259" y1="117.667" y2="132.667"/><polygon fill="#A80036" points="255,122.667,259,132.667,263,122.667,259,126.667" style="stroke:#A80036;stroke-width:1.0;"/><line style="stroke:#A80036;stroke-width:1.5;" x1="259" x2="259" y1="180.6045" y2="185.6045"/><line style="stroke:#A80036;stroke-width:1.5;" x1="259" x2="403" y1="185.6045" y2="185.6045"/><line style="stroke:#A80036;stroke-width:1.5;" x1="403" x2="403" y1="185.6045" y2="200.6045"/><polygon fill="#A80036" points="399,190.6045,403,200.6045,407,190.6045,403,194.6045" style="stroke:#A80036;stroke-width:1.0;"/><line style="stroke:#A80036;stroke-width:1.5;" x1="403" x2="403" y1="364.8818" y2="369.8818"/><line style="stroke:#A80036;stroke-width:1.5;" x1="403" x2="573.5" y1="369.8818" y2="369.8818"/><line style="stroke:#A80036;stroke-width:1.5;" x1="573.5" x2="573.5" y1="369.8818" y2="384.8818"/><polygon fill="#A80036" points="569.5,374.8818,573.5,384.8818,577.5,374.8818,573.5,378.8818" style="stroke:#A80036;stroke-width:1.0;"/><line style="stroke:#A80036;stroke-width:1.5;" x1="573.5" x2="573.5" y1="418.8506" y2="423.8506"/><line style="stroke:#A80036;stroke-width:1.5;" x1="573.5" x2="97" y1="423.8506" y2="423.8506"/><line style="stroke:#A80036;stroke-width:1.5;" x1="97" x2="97" y1="423.8506" y2="438.8506"/><polygon fill="#A80036" points="93,428.8506,97,438.8506,101,428.8506,97,432.8506" style="stroke:#A80036;stroke-width:1.0;"/><line style="stroke:#A80036;stroke-width:1.5;" x1="97" x2="97" y1="472.8193" y2="477.8193"/><line style="stroke:#A80036;stroke-width:1.5;" x1="97" x2="573.5" y1="477.8193" y2="477.8193"/><line style="stroke:#A80036;stroke-width:1.5;" x1="573.5" x2="573.5" y1="477.8193" y2="492.8193"/><polygon fill="#A80036" points="569.5,482.8193,573.5,492.8193,577.5,482.8193,573.5,486.8193" style="stroke:#A80036;stroke-width:1.0;"/><text fill="#000000" font-family="sans-serif" font-size="18" lengthAdjust="spacingAndGlyphs" textLength="36" x="81" y="29.4531">用户</text><text fill="#000000" font-family="sans-serif" font-size="18" lengthAdjust="spacingAndGlyphs" textLength="108" x="207" y="29.4531">八达通读卡器</text><text fill="#000000" font-family="sans-serif" font-size="18" lengthAdjust="spacingAndGlyphs" textLength="90" x="376.25" y="29.4531">电梯服务器</text><text fill="#000000" font-family="sans-serif" font-size="18" lengthAdjust="spacingAndGlyphs" textLength="90" x="530.5" y="29.4531">电梯控制器</text><!--MD5=[efd6287a02a345847501003ff76123eb]
@startuml octopus
|用户|
start
:刷(八达通)卡;
|#AntiqueWhite|八达通读卡器|
:读取卡号
发送卡号到电梯服务器;
|电梯服务器|
:查找卡号
返回可控楼层数组;
if (数组不为空?) then (No)
  stop
else (Yes)
  :调用电梯控制SDK
  发送可控楼层数组;
  |#AntiqueWhite|电梯控制器|
  :点亮可控楼层灯按键;
  |用户|
  :按下被点亮灯的楼层按键;
  |#AntiqueWhite|电梯控制器|
  :控制电梯到选定楼层;
  stop
endif
@enduml

PlantUML version 1.2020.22(Sun Dec 06 09:36:27 UTC 2020)
(GPL source distribution)
Java Runtime: OpenJDK Runtime Environment
JVM: OpenJDK 64-Bit Server VM
Default Encoding: UTF-8
Language: en
Country: null
--></g></svg>