<?xml version="1.0" encoding="UTF-8" standalone="no"?><svg xmlns="http://www.w3.org/2000/svg" xmlns:xlink="http://www.w3.org/1999/xlink" contentScriptType="application/ecmascript" contentStyleType="text/css" height="484px" preserveAspectRatio="none" style="width:643px;height:484px;" version="1.1" viewBox="0 0 643 484" width="643px" zoomAndPan="magnify"><defs><filter height="300%" id="fvrxub4nc4q9o" width="300%" x="-1" y="-1"><feGaussianBlur result="blurOut" stdDeviation="2.0"/><feColorMatrix in="blurOut" result="blurOut2" type="matrix" values="0 0 0 0 0 0 0 0 0 0 0 0 0 0 0 0 0 0 .4 0"/><feOffset dx="4.0" dy="4.0" in="blurOut2" result="blurOut3"/><feBlend in="SourceGraphic" in2="blurOut3" mode="normal"/></filter></defs><g><ellipse cx="66" cy="48.6982" fill="#000000" filter="url(#fvrxub4nc4q9o)" rx="10" ry="10" style="stroke:none;stroke-width:1.0;"/><rect fill="#FEFECE" filter="url(#fvrxub4nc4q9o)" height="33.9688" rx="12.5" ry="12.5" style="stroke:#A80036;stroke-width:1.5;" width="90" x="21" y="78.6982"/><text fill="#000000" font-family="sans-serif" font-size="12" lengthAdjust="spacingAndGlyphs" textLength="70" x="31" y="99.8369">刷(八达通)卡</text><line style="stroke:#000000;stroke-width:2.0;" x1="15" x2="15" y1="12.7451" y2="472.8506"/><rect fill="#FAEBD7" height="460.1055" style="stroke:#FAEBD7;stroke-width:1.0;" width="156" x="121" y="12.7451"/><rect fill="#FEFECE" filter="url(#fvrxub4nc4q9o)" height="47.9375" rx="12.5" ry="12.5" style="stroke:#A80036;stroke-width:1.5;" width="140" x="127" y="132.667"/><text fill="#000000" font-family="sans-serif" font-size="12" lengthAdjust="spacingAndGlyphs" textLength="48" x="137" y="153.8057">读取卡号</text><text fill="#000000" font-family="sans-serif" font-size="12" lengthAdjust="spacingAndGlyphs" textLength="120" x="137" y="167.7744">发送卡号到电梯服务器</text><line style="stroke:#000000;stroke-width:2.0;" x1="121" x2="121" y1="12.7451" y2="472.8506"/><rect fill="#FEFECE" filter="url(#fvrxub4nc4q9o)" height="47.9375" rx="12.5" ry="12.5" style="stroke:#A80036;stroke-width:1.5;" width="116" x="298.5" y="200.6045"/><text fill="#000000" font-family="sans-serif" font-size="12" lengthAdjust="spacingAndGlyphs" textLength="48" x="308.5" y="221.7432">查找卡号</text><text fill="#000000" font-family="sans-serif" font-size="12" lengthAdjust="spacingAndGlyphs" textLength="96" x="308.5" y="235.7119">返回可控楼层数组</text><rect fill="#FEFECE" filter="url(#fvrxub4nc4q9o)" height="47.9375" rx="12.5" ry="12.5" style="stroke:#A80036;stroke-width:1.5;" width="116" x="298.5" y="316.9443"/><text fill="#000000" font-family="sans-serif" font-size="12" lengthAdjust="spacingAndGlyphs" textLength="96" x="308.5" y="338.083">调用电梯控制SDK</text><text fill="#000000" font-family="sans-serif" font-size="12" lengthAdjust="spacingAndGlyphs" textLength="72" x="308.5" y="352.0518">发送控制指令</text><polygon fill="#FEFECE" filter="url(#fvrxub4nc4q9o)" points="304,268.542,409,268.542,421,280.542,409,292.542,304,292.542,292,280.542,304,268.542" style="stroke:#A80036;stroke-width:1.5;"/><text fill="#000000" font-family="sans-serif" font-size="11" lengthAdjust="spacingAndGlyphs" textLength="21" x="360.5" y="302.7524">Yes</text><text fill="#000000" font-family="sans-serif" font-size="11" lengthAdjust="spacingAndGlyphs" textLength="105" x="304" y="284.3501">数组length === 1?</text><text fill="#000000" font-family="sans-serif" font-size="11" lengthAdjust="spacingAndGlyphs" textLength="15" x="421" y="277.9478">No</text><ellipse cx="458" cy="280.542" fill="#FFFFFF" filter="url(#fvrxub4nc4q9o)" rx="11" ry="11" style="stroke:#000000;stroke-width:1.0;"/><ellipse cx="458" cy="280.542" fill="#000000" rx="6" ry="6" style="stroke:#7F7F7F;stroke-width:1.0;"/><line style="stroke:#000000;stroke-width:2.0;" x1="277" x2="277" y1="12.7451" y2="472.8506"/><rect fill="#FAEBD7" height="460.1055" style="stroke:#FAEBD7;stroke-width:1.0;" width="144" x="479" y="12.7451"/><rect fill="#FEFECE" filter="url(#fvrxub4nc4q9o)" height="33.9688" rx="12.5" ry="12.5" style="stroke:#A80036;stroke-width:1.5;" width="128" x="485" y="384.8818"/><text fill="#000000" font-family="sans-serif" font-size="12" lengthAdjust="spacingAndGlyphs" textLength="108" x="495" y="406.0205">控制电梯到选定楼层</text><ellipse cx="549" cy="449.8506" fill="#FFFFFF" filter="url(#fvrxub4nc4q9o)" rx="11" ry="11" style="stroke:#000000;stroke-width:1.0;"/><ellipse cx="549" cy="449.8506" fill="#000000" rx="6" ry="6" style="stroke:#7F7F7F;stroke-width:1.0;"/><line style="stroke:#000000;stroke-width:2.0;" x1="479" x2="479" y1="12.7451" y2="472.8506"/><line style="stroke:#000000;stroke-width:2.0;" x1="623" x2="623" y1="12.7451" y2="472.8506"/><line style="stroke:#A80036;stroke-width:1.5;" x1="66" x2="66" y1="58.6982" y2="78.6982"/><polygon fill="#A80036" points="62,68.6982,66,78.6982,70,68.6982,66,72.6982" style="stroke:#A80036;stroke-width:1.0;"/><line style="stroke:#A80036;stroke-width:1.5;" x1="356.5" x2="356.5" y1="292.542" y2="316.9443"/><polygon fill="#A80036" points="352.5,306.9443,356.5,316.9443,360.5,306.9443,356.5,310.9443" style="stroke:#A80036;stroke-width:1.0;"/><line style="stroke:#A80036;stroke-width:1.5;" x1="421" x2="447" y1="280.542" y2="280.542"/><polygon fill="#A80036" points="437,276.542,447,280.542,437,284.542,441,280.542" style="stroke:#A80036;stroke-width:1.0;"/><line style="stroke:#A80036;stroke-width:1.5;" x1="356.5" x2="356.5" y1="248.542" y2="268.542"/><polygon fill="#A80036" points="352.5,258.542,356.5,268.542,360.5,258.542,356.5,262.542" style="stroke:#A80036;stroke-width:1.0;"/><line style="stroke:#A80036;stroke-width:1.5;" x1="549" x2="549" y1="418.8506" y2="438.8506"/><polygon fill="#A80036" points="545,428.8506,549,438.8506,553,428.8506,549,432.8506" style="stroke:#A80036;stroke-width:1.0;"/><line style="stroke:#A80036;stroke-width:1.5;" x1="66" x2="66" y1="112.667" y2="117.667"/><line style="stroke:#A80036;stroke-width:1.5;" x1="66" x2="197" y1="117.667" y2="117.667"/><line style="stroke:#A80036;stroke-width:1.5;" x1="197" x2="197" y1="117.667" y2="132.667"/><polygon fill="#A80036" points="193,122.667,197,132.667,201,122.667,197,126.667" style="stroke:#A80036;stroke-width:1.0;"/><line style="stroke:#A80036;stroke-width:1.5;" x1="197" x2="197" y1="180.6045" y2="185.6045"/><line style="stroke:#A80036;stroke-width:1.5;" x1="197" x2="356.5" y1="185.6045" y2="185.6045"/><line style="stroke:#A80036;stroke-width:1.5;" x1="356.5" x2="356.5" y1="185.6045" y2="200.6045"/><polygon fill="#A80036" points="352.5,190.6045,356.5,200.6045,360.5,190.6045,356.5,194.6045" style="stroke:#A80036;stroke-width:1.0;"/><line style="stroke:#A80036;stroke-width:1.5;" x1="356.5" x2="356.5" y1="364.8818" y2="369.8818"/><line style="stroke:#A80036;stroke-width:1.5;" x1="356.5" x2="549" y1="369.8818" y2="369.8818"/><line style="stroke:#A80036;stroke-width:1.5;" x1="549" x2="549" y1="369.8818" y2="384.8818"/><polygon fill="#A80036" points="545,374.8818,549,384.8818,553,374.8818,549,378.8818" style="stroke:#A80036;stroke-width:1.0;"/><text fill="#000000" font-family="sans-serif" font-size="18" lengthAdjust="spacingAndGlyphs" textLength="36" x="50" y="29.4531">用户</text><text fill="#000000" font-family="sans-serif" font-size="18" lengthAdjust="spacingAndGlyphs" textLength="108" x="145" y="29.4531">八达通读卡器</text><text fill="#000000" font-family="sans-serif" font-size="18" lengthAdjust="spacingAndGlyphs" textLength="90" x="333" y="29.4531">电梯服务器</text><text fill="#000000" font-family="sans-serif" font-size="18" lengthAdjust="spacingAndGlyphs" textLength="90" x="506" y="29.4531">电梯控制器</text><!--MD5=[53e3f26ea1fe761e1e35f1fb87060d5c]
@startuml octopus
|用户|
start
:刷(八达通)卡;
|#AntiqueWhite|八达通读卡器|
:读取卡号
发送卡号到电梯服务器;
|电梯服务器|
:查找卡号
返回可控楼层数组;
if (数组length === 1?) then (No)
  stop
else (Yes)
  :调用电梯控制SDK
  发送控制指令;
  |#AntiqueWhite|电梯控制器|
  :控制电梯到选定楼层;
  stop
endif
@enduml

PlantUML version 1.2020.22(Sun Dec 06 09:36:27 UTC 2020)
(GPL source distribution)
Java Runtime: OpenJDK Runtime Environment
JVM: OpenJDK 64-Bit Server VM
Default Encoding: UTF-8
Language: en
Country: null
--></g></svg>