<?xml version="1.0" encoding="UTF-8" standalone="no"?><svg xmlns="http://www.w3.org/2000/svg" xmlns:xlink="http://www.w3.org/1999/xlink" contentScriptType="application/ecmascript" contentStyleType="text/css" height="484px" preserveAspectRatio="none" style="width:609px;height:484px;" version="1.1" viewBox="0 0 609 484" width="609px" zoomAndPan="magnify"><defs><filter height="300%" id="fotikg24w88gh" width="300%" x="-1" y="-1"><feGaussianBlur result="blurOut" stdDeviation="2.0"/><feColorMatrix in="blurOut" result="blurOut2" type="matrix" values="0 0 0 0 0 0 0 0 0 0 0 0 0 0 0 0 0 0 .4 0"/><feOffset dx="4.0" dy="4.0" in="blurOut2" result="blurOut3"/><feBlend in="SourceGraphic" in2="blurOut3" mode="normal"/></filter></defs><g><ellipse cx="61" cy="48.6982" fill="#000000" filter="url(#fotikg24w88gh)" rx="10" ry="10" style="stroke:none;stroke-width:1.0;"/><rect fill="#FEFECE" filter="url(#fotikg24w88gh)" height="33.9688" rx="12.5" ry="12.5" style="stroke:#A80036;stroke-width:1.5;" width="80" x="21" y="78.6982"/><text fill="#000000" font-family="sans-serif" font-size="12" lengthAdjust="spacingAndGlyphs" textLength="60" x="31" y="99.8369">扫描二维码</text><line style="stroke:#000000;stroke-width:2.0;" x1="15" x2="15" y1="12.7451" y2="472.8506"/><rect fill="#FAEBD7" height="460.1055" style="stroke:#FAEBD7;stroke-width:1.0;" width="132" x="111" y="12.7451"/><rect fill="#FEFECE" filter="url(#fotikg24w88gh)" height="47.9375" rx="12.5" ry="12.5" style="stroke:#A80036;stroke-width:1.5;" width="116" x="117" y="132.667"/><text fill="#000000" font-family="sans-serif" font-size="12" lengthAdjust="spacingAndGlyphs" textLength="84" x="127" y="153.8057">读取二维码信息</text><text fill="#000000" font-family="sans-serif" font-size="12" lengthAdjust="spacingAndGlyphs" textLength="96" x="127" y="167.7744">发送到电梯服务器</text><line style="stroke:#000000;stroke-width:2.0;" x1="111" x2="111" y1="12.7451" y2="472.8506"/><rect fill="#FEFECE" filter="url(#fotikg24w88gh)" height="47.9375" rx="12.5" ry="12.5" style="stroke:#A80036;stroke-width:1.5;" width="116" x="264.5" y="200.6045"/><text fill="#000000" font-family="sans-serif" font-size="12" lengthAdjust="spacingAndGlyphs" textLength="84" x="274.5" y="221.7432">通过二维码信息</text><text fill="#000000" font-family="sans-serif" font-size="12" lengthAdjust="spacingAndGlyphs" textLength="96" x="274.5" y="235.7119">查找可控楼层数组</text><rect fill="#FEFECE" filter="url(#fotikg24w88gh)" height="47.9375" rx="12.5" ry="12.5" style="stroke:#A80036;stroke-width:1.5;" width="116" x="264.5" y="316.9443"/><text fill="#000000" font-family="sans-serif" font-size="12" lengthAdjust="spacingAndGlyphs" textLength="96" x="274.5" y="338.083">调用电梯控制SDK</text><text fill="#000000" font-family="sans-serif" font-size="12" lengthAdjust="spacingAndGlyphs" textLength="72" x="274.5" y="352.0518">发送控制指令</text><polygon fill="#FEFECE" filter="url(#fotikg24w88gh)" points="270,268.542,375,268.542,387,280.542,375,292.542,270,292.542,258,280.542,270,268.542" style="stroke:#A80036;stroke-width:1.5;"/><text fill="#000000" font-family="sans-serif" font-size="11" lengthAdjust="spacingAndGlyphs" textLength="21" x="326.5" y="302.7524">Yes</text><text fill="#000000" font-family="sans-serif" font-size="11" lengthAdjust="spacingAndGlyphs" textLength="105" x="270" y="284.3501">数组length === 1?</text><text fill="#000000" font-family="sans-serif" font-size="11" lengthAdjust="spacingAndGlyphs" textLength="15" x="387" y="277.9478">No</text><ellipse cx="424" cy="280.542" fill="#FFFFFF" filter="url(#fotikg24w88gh)" rx="11" ry="11" style="stroke:#000000;stroke-width:1.0;"/><ellipse cx="424" cy="280.542" fill="#000000" rx="6" ry="6" style="stroke:#7F7F7F;stroke-width:1.0;"/><line style="stroke:#000000;stroke-width:2.0;" x1="243" x2="243" y1="12.7451" y2="472.8506"/><rect fill="#FAEBD7" height="460.1055" style="stroke:#FAEBD7;stroke-width:1.0;" width="144" x="445" y="12.7451"/><rect fill="#FEFECE" filter="url(#fotikg24w88gh)" height="33.9688" rx="12.5" ry="12.5" style="stroke:#A80036;stroke-width:1.5;" width="128" x="451" y="384.8818"/><text fill="#000000" font-family="sans-serif" font-size="12" lengthAdjust="spacingAndGlyphs" textLength="108" x="461" y="406.0205">控制电梯到选定楼层</text><ellipse cx="515" cy="449.8506" fill="#FFFFFF" filter="url(#fotikg24w88gh)" rx="11" ry="11" style="stroke:#000000;stroke-width:1.0;"/><ellipse cx="515" cy="449.8506" fill="#000000" rx="6" ry="6" style="stroke:#7F7F7F;stroke-width:1.0;"/><line style="stroke:#000000;stroke-width:2.0;" x1="445" x2="445" y1="12.7451" y2="472.8506"/><line style="stroke:#000000;stroke-width:2.0;" x1="589" x2="589" y1="12.7451" y2="472.8506"/><line style="stroke:#A80036;stroke-width:1.5;" x1="61" x2="61" y1="58.6982" y2="78.6982"/><polygon fill="#A80036" points="57,68.6982,61,78.6982,65,68.6982,61,72.6982" style="stroke:#A80036;stroke-width:1.0;"/><line style="stroke:#A80036;stroke-width:1.5;" x1="322.5" x2="322.5" y1="292.542" y2="316.9443"/><polygon fill="#A80036" points="318.5,306.9443,322.5,316.9443,326.5,306.9443,322.5,310.9443" style="stroke:#A80036;stroke-width:1.0;"/><line style="stroke:#A80036;stroke-width:1.5;" x1="387" x2="413" y1="280.542" y2="280.542"/><polygon fill="#A80036" points="403,276.542,413,280.542,403,284.542,407,280.542" style="stroke:#A80036;stroke-width:1.0;"/><line style="stroke:#A80036;stroke-width:1.5;" x1="322.5" x2="322.5" y1="248.542" y2="268.542"/><polygon fill="#A80036" points="318.5,258.542,322.5,268.542,326.5,258.542,322.5,262.542" style="stroke:#A80036;stroke-width:1.0;"/><line style="stroke:#A80036;stroke-width:1.5;" x1="515" x2="515" y1="418.8506" y2="438.8506"/><polygon fill="#A80036" points="511,428.8506,515,438.8506,519,428.8506,515,432.8506" style="stroke:#A80036;stroke-width:1.0;"/><line style="stroke:#A80036;stroke-width:1.5;" x1="61" x2="61" y1="112.667" y2="117.667"/><line style="stroke:#A80036;stroke-width:1.5;" x1="61" x2="175" y1="117.667" y2="117.667"/><line style="stroke:#A80036;stroke-width:1.5;" x1="175" x2="175" y1="117.667" y2="132.667"/><polygon fill="#A80036" points="171,122.667,175,132.667,179,122.667,175,126.667" style="stroke:#A80036;stroke-width:1.0;"/><line style="stroke:#A80036;stroke-width:1.5;" x1="175" x2="175" y1="180.6045" y2="185.6045"/><line style="stroke:#A80036;stroke-width:1.5;" x1="175" x2="322.5" y1="185.6045" y2="185.6045"/><line style="stroke:#A80036;stroke-width:1.5;" x1="322.5" x2="322.5" y1="185.6045" y2="200.6045"/><polygon fill="#A80036" points="318.5,190.6045,322.5,200.6045,326.5,190.6045,322.5,194.6045" style="stroke:#A80036;stroke-width:1.0;"/><line style="stroke:#A80036;stroke-width:1.5;" x1="322.5" x2="322.5" y1="364.8818" y2="369.8818"/><line style="stroke:#A80036;stroke-width:1.5;" x1="322.5" x2="515" y1="369.8818" y2="369.8818"/><line style="stroke:#A80036;stroke-width:1.5;" x1="515" x2="515" y1="369.8818" y2="384.8818"/><polygon fill="#A80036" points="511,374.8818,515,384.8818,519,374.8818,515,378.8818" style="stroke:#A80036;stroke-width:1.0;"/><text fill="#000000" font-family="sans-serif" font-size="18" lengthAdjust="spacingAndGlyphs" textLength="36" x="45" y="29.4531">用户</text><text fill="#000000" font-family="sans-serif" font-size="18" lengthAdjust="spacingAndGlyphs" textLength="108" x="123" y="29.4531">二维码扫描器</text><text fill="#000000" font-family="sans-serif" font-size="18" lengthAdjust="spacingAndGlyphs" textLength="90" x="299" y="29.4531">电梯服务器</text><text fill="#000000" font-family="sans-serif" font-size="18" lengthAdjust="spacingAndGlyphs" textLength="90" x="472" y="29.4531">电梯控制器</text><!--MD5=[177c6299e37b78df5cad487339066f99]
@startuml qrcode
|用户|
start
:扫描二维码;
|#AntiqueWhite|二维码扫描器|
:读取二维码信息
发送到电梯服务器;
|电梯服务器|
:通过二维码信息
查找可控楼层数组;
if (数组length === 1?) then (No)
  stop
else (Yes)
  :调用电梯控制SDK
  发送控制指令;
  |#AntiqueWhite|电梯控制器|
  :控制电梯到选定楼层;
  stop
endif
@enduml

PlantUML version 1.2020.22(Sun Dec 06 09:36:27 UTC 2020)
(GPL source distribution)
Java Runtime: OpenJDK Runtime Environment
JVM: OpenJDK 64-Bit Server VM
Default Encoding: UTF-8
Language: en
Country: null
--></g></svg>