<?xml version="1.0" encoding="UTF-8" standalone="no"?><svg xmlns="http://www.w3.org/2000/svg" xmlns:xlink="http://www.w3.org/1999/xlink" contentScriptType="application/ecmascript" contentStyleType="text/css" height="1258px" preserveAspectRatio="none" style="width:346px;height:1258px;" version="1.1" viewBox="0 0 346 1258" width="346px" zoomAndPan="magnify"><defs><filter height="300%" id="fdj2k4u7sdu1n" width="300%" x="-1" y="-1"><feGaussianBlur result="blurOut" stdDeviation="2.0"/><feColorMatrix in="blurOut" result="blurOut2" type="matrix" values="0 0 0 0 0 0 0 0 0 0 0 0 0 0 0 0 0 0 .4 0"/><feOffset dx="4.0" dy="4.0" in="blurOut2" result="blurOut3"/><feBlend in="SourceGraphic" in2="blurOut3" mode="normal"/></filter></defs><g><!--MD5=[00315bd5ac217105c26aef39d2487cc0]
entity Master--><path d="M6,616 C6,606 39.5,606 39.5,606 C39.5,606 73,606 73,616 L73,641.2969 C73,651.2969 39.5,651.2969 39.5,651.2969 C39.5,651.2969 6,651.2969 6,641.2969 L6,616 " fill="#FEFECE" filter="url(#fdj2k4u7sdu1n)" style="stroke:#000000;stroke-width:1.5;"/><path d="M6,616 C6,626 39.5,626 39.5,626 C39.5,626 73,626 73,616 " fill="none" style="stroke:#000000;stroke-width:1.5;"/><text fill="#000000" font-family="sans-serif" font-size="14" lengthAdjust="spacingAndGlyphs" textLength="47" x="16" y="642.9951">Master</text><!--MD5=[f505babd88ea3f591f10cf591752be7f]
entity Slave1--><path d="M133,176 C133,166 165.5,166 165.5,166 C165.5,166 198,166 198,176 L198,201.2969 C198,211.2969 165.5,211.2969 165.5,211.2969 C165.5,211.2969 133,211.2969 133,201.2969 L133,176 " fill="#FEFECE" filter="url(#fdj2k4u7sdu1n)" style="stroke:#000000;stroke-width:1.5;"/><path d="M133,176 C133,186 165.5,186 165.5,186 C165.5,186 198,186 198,176 " fill="none" style="stroke:#000000;stroke-width:1.5;"/><text fill="#000000" font-family="sans-serif" font-size="14" lengthAdjust="spacingAndGlyphs" textLength="45" x="143" y="202.9951">Slave1</text><!--MD5=[41c1afbc2d31e7878e9a3a5853e151bb]
entity Slave1_1--><path d="M258,16 C258,6 298.5,6 298.5,6 C298.5,6 339,6 339,16 L339,41.2969 C339,51.2969 298.5,51.2969 298.5,51.2969 C298.5,51.2969 258,51.2969 258,41.2969 L258,16 " fill="#FEFECE" filter="url(#fdj2k4u7sdu1n)" style="stroke:#000000;stroke-width:1.5;"/><path d="M258,16 C258,26 298.5,26 298.5,26 C298.5,26 339,26 339,16 " fill="none" style="stroke:#000000;stroke-width:1.5;"/><text fill="#000000" font-family="sans-serif" font-size="14" lengthAdjust="spacingAndGlyphs" textLength="61" x="268" y="42.9951">Slave1_1</text><!--MD5=[3b49de5ce66cedd4660d7a0ea06d6dab]
entity Slave1_2--><path d="M258,96 C258,86 298.5,86 298.5,86 C298.5,86 339,86 339,96 L339,121.2969 C339,131.2969 298.5,131.2969 298.5,131.2969 C298.5,131.2969 258,131.2969 258,121.2969 L258,96 " fill="#FEFECE" filter="url(#fdj2k4u7sdu1n)" style="stroke:#000000;stroke-width:1.5;"/><path d="M258,96 C258,106 298.5,106 298.5,106 C298.5,106 339,106 339,96 " fill="none" style="stroke:#000000;stroke-width:1.5;"/><text fill="#000000" font-family="sans-serif" font-size="14" lengthAdjust="spacingAndGlyphs" textLength="61" x="268" y="122.9951">Slave1_2</text><!--MD5=[f9622e3aa7a8a4ab26f6ecfbbb22e065]
entity Slave1_3--><path d="M258,176 C258,166 298.5,166 298.5,166 C298.5,166 339,166 339,176 L339,201.2969 C339,211.2969 298.5,211.2969 298.5,211.2969 C298.5,211.2969 258,211.2969 258,201.2969 L258,176 " fill="#FEFECE" filter="url(#fdj2k4u7sdu1n)" style="stroke:#000000;stroke-width:1.5;"/><path d="M258,176 C258,186 298.5,186 298.5,186 C298.5,186 339,186 339,176 " fill="none" style="stroke:#000000;stroke-width:1.5;"/><text fill="#000000" font-family="sans-serif" font-size="14" lengthAdjust="spacingAndGlyphs" textLength="61" x="268" y="202.9951">Slave1_3</text><!--MD5=[30de9adb593dbf033d532a90ef6b06d2]
entity Slave1_4--><path d="M258,256 C258,246 298.5,246 298.5,246 C298.5,246 339,246 339,256 L339,281.2969 C339,291.2969 298.5,291.2969 298.5,291.2969 C298.5,291.2969 258,291.2969 258,281.2969 L258,256 " fill="#FEFECE" filter="url(#fdj2k4u7sdu1n)" style="stroke:#000000;stroke-width:1.5;"/><path d="M258,256 C258,266 298.5,266 298.5,266 C298.5,266 339,266 339,256 " fill="none" style="stroke:#000000;stroke-width:1.5;"/><text fill="#000000" font-family="sans-serif" font-size="14" lengthAdjust="spacingAndGlyphs" textLength="61" x="268" y="282.9951">Slave1_4</text><!--MD5=[994f9e94172303d97a08bf4880f3e3f4]
entity Slave2--><path d="M133,496 C133,486 165.5,486 165.5,486 C165.5,486 198,486 198,496 L198,521.2969 C198,531.2969 165.5,531.2969 165.5,531.2969 C165.5,531.2969 133,531.2969 133,521.2969 L133,496 " fill="#FEFECE" filter="url(#fdj2k4u7sdu1n)" style="stroke:#000000;stroke-width:1.5;"/><path d="M133,496 C133,506 165.5,506 165.5,506 C165.5,506 198,506 198,496 " fill="none" style="stroke:#000000;stroke-width:1.5;"/><text fill="#000000" font-family="sans-serif" font-size="14" lengthAdjust="spacingAndGlyphs" textLength="45" x="143" y="522.9951">Slave2</text><!--MD5=[4891a5064dc425bee9194b57640f9e8e]
entity Slave2_1--><path d="M258,336 C258,326 298.5,326 298.5,326 C298.5,326 339,326 339,336 L339,361.2969 C339,371.2969 298.5,371.2969 298.5,371.2969 C298.5,371.2969 258,371.2969 258,361.2969 L258,336 " fill="#FEFECE" filter="url(#fdj2k4u7sdu1n)" style="stroke:#000000;stroke-width:1.5;"/><path d="M258,336 C258,346 298.5,346 298.5,346 C298.5,346 339,346 339,336 " fill="none" style="stroke:#000000;stroke-width:1.5;"/><text fill="#000000" font-family="sans-serif" font-size="14" lengthAdjust="spacingAndGlyphs" textLength="61" x="268" y="362.9951">Slave2_1</text><!--MD5=[4d3e858dabb34f2839272bd44a1d0a0a]
entity Slave2_2--><path d="M258,416 C258,406 298.5,406 298.5,406 C298.5,406 339,406 339,416 L339,441.2969 C339,451.2969 298.5,451.2969 298.5,451.2969 C298.5,451.2969 258,451.2969 258,441.2969 L258,416 " fill="#FEFECE" filter="url(#fdj2k4u7sdu1n)" style="stroke:#000000;stroke-width:1.5;"/><path d="M258,416 C258,426 298.5,426 298.5,426 C298.5,426 339,426 339,416 " fill="none" style="stroke:#000000;stroke-width:1.5;"/><text fill="#000000" font-family="sans-serif" font-size="14" lengthAdjust="spacingAndGlyphs" textLength="61" x="268" y="442.9951">Slave2_2</text><!--MD5=[0eb2bae22e24204ad1aa7d75ce2a8037]
entity Slave2_3--><path d="M258,496 C258,486 298.5,486 298.5,486 C298.5,486 339,486 339,496 L339,521.2969 C339,531.2969 298.5,531.2969 298.5,531.2969 C298.5,531.2969 258,531.2969 258,521.2969 L258,496 " fill="#FEFECE" filter="url(#fdj2k4u7sdu1n)" style="stroke:#000000;stroke-width:1.5;"/><path d="M258,496 C258,506 298.5,506 298.5,506 C298.5,506 339,506 339,496 " fill="none" style="stroke:#000000;stroke-width:1.5;"/><text fill="#000000" font-family="sans-serif" font-size="14" lengthAdjust="spacingAndGlyphs" textLength="61" x="268" y="522.9951">Slave2_3</text><!--MD5=[b8769d14e28f19af5b62775143d19351]
entity Slave2_4--><path d="M258,576 C258,566 298.5,566 298.5,566 C298.5,566 339,566 339,576 L339,601.2969 C339,611.2969 298.5,611.2969 298.5,611.2969 C298.5,611.2969 258,611.2969 258,601.2969 L258,576 " fill="#FEFECE" filter="url(#fdj2k4u7sdu1n)" style="stroke:#000000;stroke-width:1.5;"/><path d="M258,576 C258,586 298.5,586 298.5,586 C298.5,586 339,586 339,576 " fill="none" style="stroke:#000000;stroke-width:1.5;"/><text fill="#000000" font-family="sans-serif" font-size="14" lengthAdjust="spacingAndGlyphs" textLength="61" x="268" y="602.9951">Slave2_4</text><!--MD5=[4afe0b85093609a39fd7c8d0f1f96da1]
entity Slave3--><path d="M133,736 C133,726 165.5,726 165.5,726 C165.5,726 198,726 198,736 L198,761.2969 C198,771.2969 165.5,771.2969 165.5,771.2969 C165.5,771.2969 133,771.2969 133,761.2969 L133,736 " fill="#FEFECE" filter="url(#fdj2k4u7sdu1n)" style="stroke:#000000;stroke-width:1.5;"/><path d="M133,736 C133,746 165.5,746 165.5,746 C165.5,746 198,746 198,736 " fill="none" style="stroke:#000000;stroke-width:1.5;"/><text fill="#000000" font-family="sans-serif" font-size="14" lengthAdjust="spacingAndGlyphs" textLength="45" x="143" y="762.9951">Slave3</text><!--MD5=[fa7f54f873cc83e1b17c4c071f5ad446]
entity Slave3_1--><path d="M258,656 C258,646 298.5,646 298.5,646 C298.5,646 339,646 339,656 L339,681.2969 C339,691.2969 298.5,691.2969 298.5,691.2969 C298.5,691.2969 258,691.2969 258,681.2969 L258,656 " fill="#FEFECE" filter="url(#fdj2k4u7sdu1n)" style="stroke:#000000;stroke-width:1.5;"/><path d="M258,656 C258,666 298.5,666 298.5,666 C298.5,666 339,666 339,656 " fill="none" style="stroke:#000000;stroke-width:1.5;"/><text fill="#000000" font-family="sans-serif" font-size="14" lengthAdjust="spacingAndGlyphs" textLength="61" x="268" y="682.9951">Slave3_1</text><!--MD5=[08a2634e5876e9098d3c93f22786f8fb]
entity Slave3_2--><path d="M258,736 C258,726 298.5,726 298.5,726 C298.5,726 339,726 339,736 L339,761.2969 C339,771.2969 298.5,771.2969 298.5,771.2969 C298.5,771.2969 258,771.2969 258,761.2969 L258,736 " fill="#FEFECE" filter="url(#fdj2k4u7sdu1n)" style="stroke:#000000;stroke-width:1.5;"/><path d="M258,736 C258,746 298.5,746 298.5,746 C298.5,746 339,746 339,736 " fill="none" style="stroke:#000000;stroke-width:1.5;"/><text fill="#000000" font-family="sans-serif" font-size="14" lengthAdjust="spacingAndGlyphs" textLength="61" x="268" y="762.9951">Slave3_2</text><!--MD5=[ae4751df6adc15fd1418510481237cfa]
entity Slave3_3--><path d="M258,816 C258,806 298.5,806 298.5,806 C298.5,806 339,806 339,816 L339,841.2969 C339,851.2969 298.5,851.2969 298.5,851.2969 C298.5,851.2969 258,851.2969 258,841.2969 L258,816 " fill="#FEFECE" filter="url(#fdj2k4u7sdu1n)" style="stroke:#000000;stroke-width:1.5;"/><path d="M258,816 C258,826 298.5,826 298.5,826 C298.5,826 339,826 339,816 " fill="none" style="stroke:#000000;stroke-width:1.5;"/><text fill="#000000" font-family="sans-serif" font-size="14" lengthAdjust="spacingAndGlyphs" textLength="61" x="268" y="842.9951">Slave3_3</text><!--MD5=[4cf5033fc6e10a26933e7a5ee74fd982]
entity Slave3_4--><path d="M258,896 C258,886 298.5,886 298.5,886 C298.5,886 339,886 339,896 L339,921.2969 C339,931.2969 298.5,931.2969 298.5,931.2969 C298.5,931.2969 258,931.2969 258,921.2969 L258,896 " fill="#FEFECE" filter="url(#fdj2k4u7sdu1n)" style="stroke:#000000;stroke-width:1.5;"/><path d="M258,896 C258,906 298.5,906 298.5,906 C298.5,906 339,906 339,896 " fill="none" style="stroke:#000000;stroke-width:1.5;"/><text fill="#000000" font-family="sans-serif" font-size="14" lengthAdjust="spacingAndGlyphs" textLength="61" x="268" y="922.9951">Slave3_4</text><!--MD5=[e51ac4f3c5d9928e0f4031c0bb03dc11]
entity Slave4--><path d="M133,1056 C133,1046 165.5,1046 165.5,1046 C165.5,1046 198,1046 198,1056 L198,1081.2969 C198,1091.2969 165.5,1091.2969 165.5,1091.2969 C165.5,1091.2969 133,1091.2969 133,1081.2969 L133,1056 " fill="#FEFECE" filter="url(#fdj2k4u7sdu1n)" style="stroke:#000000;stroke-width:1.5;"/><path d="M133,1056 C133,1066 165.5,1066 165.5,1066 C165.5,1066 198,1066 198,1056 " fill="none" style="stroke:#000000;stroke-width:1.5;"/><text fill="#000000" font-family="sans-serif" font-size="14" lengthAdjust="spacingAndGlyphs" textLength="45" x="143" y="1082.9951">Slave4</text><!--MD5=[615dd94da8d672761226cdce9a57a356]
entity Slave4_1--><path d="M258,976 C258,966 298.5,966 298.5,966 C298.5,966 339,966 339,976 L339,1001.2969 C339,1011.2969 298.5,1011.2969 298.5,1011.2969 C298.5,1011.2969 258,1011.2969 258,1001.2969 L258,976 " fill="#FEFECE" filter="url(#fdj2k4u7sdu1n)" style="stroke:#000000;stroke-width:1.5;"/><path d="M258,976 C258,986 298.5,986 298.5,986 C298.5,986 339,986 339,976 " fill="none" style="stroke:#000000;stroke-width:1.5;"/><text fill="#000000" font-family="sans-serif" font-size="14" lengthAdjust="spacingAndGlyphs" textLength="61" x="268" y="1002.9951">Slave4_1</text><!--MD5=[05beb85b7b6cf72787410b35913903c2]
entity Slave4_2--><path d="M258,1056 C258,1046 298.5,1046 298.5,1046 C298.5,1046 339,1046 339,1056 L339,1081.2969 C339,1091.2969 298.5,1091.2969 298.5,1091.2969 C298.5,1091.2969 258,1091.2969 258,1081.2969 L258,1056 " fill="#FEFECE" filter="url(#fdj2k4u7sdu1n)" style="stroke:#000000;stroke-width:1.5;"/><path d="M258,1056 C258,1066 298.5,1066 298.5,1066 C298.5,1066 339,1066 339,1056 " fill="none" style="stroke:#000000;stroke-width:1.5;"/><text fill="#000000" font-family="sans-serif" font-size="14" lengthAdjust="spacingAndGlyphs" textLength="61" x="268" y="1082.9951">Slave4_2</text><!--MD5=[fee978878ae7f997bb36f2195d84e7d9]
entity Slave4_3--><path d="M258,1136 C258,1126 298.5,1126 298.5,1126 C298.5,1126 339,1126 339,1136 L339,1161.2969 C339,1171.2969 298.5,1171.2969 298.5,1171.2969 C298.5,1171.2969 258,1171.2969 258,1161.2969 L258,1136 " fill="#FEFECE" filter="url(#fdj2k4u7sdu1n)" style="stroke:#000000;stroke-width:1.5;"/><path d="M258,1136 C258,1146 298.5,1146 298.5,1146 C298.5,1146 339,1146 339,1136 " fill="none" style="stroke:#000000;stroke-width:1.5;"/><text fill="#000000" font-family="sans-serif" font-size="14" lengthAdjust="spacingAndGlyphs" textLength="61" x="268" y="1162.9951">Slave4_3</text><!--MD5=[b6b4e43c52484a27ccfe6ed5904f7af9]
entity Slave4_4--><path d="M258,1216 C258,1206 298.5,1206 298.5,1206 C298.5,1206 339,1206 339,1216 L339,1241.2969 C339,1251.2969 298.5,1251.2969 298.5,1251.2969 C298.5,1251.2969 258,1251.2969 258,1241.2969 L258,1216 " fill="#FEFECE" filter="url(#fdj2k4u7sdu1n)" style="stroke:#000000;stroke-width:1.5;"/><path d="M258,1216 C258,1226 298.5,1226 298.5,1226 C298.5,1226 339,1226 339,1216 " fill="none" style="stroke:#000000;stroke-width:1.5;"/><text fill="#000000" font-family="sans-serif" font-size="14" lengthAdjust="spacingAndGlyphs" textLength="61" x="268" y="1242.9951">Slave4_4</text><!--MD5=[82c848e673f5892ba8dfc3948cf3e9d7]
link Master to Slave1--><path d="M46.009,605.7702 C67.2371,531.6402 134.4208,297.0304 157.5698,216.1929 " fill="none" id="Master-to-Slave1" style="stroke:#A80036;stroke-width:1.0;"/><polygon fill="#A80036" points="159.0299,211.0939,152.7066,218.6448,157.6533,215.9007,160.3975,220.8473,159.0299,211.0939" style="stroke:#A80036;stroke-width:1.0;"/><!--MD5=[bf4b01bb67e63122b32d4ba77b3e0533]
link Slave1 to Slave1_1--><path d="M181.6795,165.6651 C199.4962,140.9736 229.4202,100.8138 258,68.5 C261.9897,63.9891 266.3748,59.3592 270.741,54.9226 " fill="none" id="Slave1-to-Slave1_1" style="stroke:#A80036;stroke-width:1.0;"/><polygon fill="#A80036" points="274.3951,51.2482,265.2126,54.8093,270.8694,54.7936,270.8852,60.4504,274.3951,51.2482" style="stroke:#A80036;stroke-width:1.0;"/><!--MD5=[b511a26eb5a383e19f7de304481d3625]
link Slave1 to Slave1_2--><path d="M198.0355,168.9298 C215.4757,158.4394 237.1763,145.3865 255.9415,134.0991 " fill="none" id="Slave1-to-Slave1_2" style="stroke:#A80036;stroke-width:1.0;"/><polygon fill="#A80036" points="260.6447,131.2701,250.8706,132.4814,256.3601,133.8473,254.9942,139.3368,260.6447,131.2701" style="stroke:#A80036;stroke-width:1.0;"/><!--MD5=[f0cda20dc9d956a180833b04dcbd0bff]
link Slave1 to Slave1_3--><path d="M198.0355,188.5 C214.4843,188.5 234.723,188.5 252.7144,188.5 " fill="none" id="Slave1-to-Slave1_3" style="stroke:#A80036;stroke-width:1.0;"/><polygon fill="#A80036" points="257.7243,188.5,248.7243,184.5,252.7243,188.5,248.7243,192.5,257.7243,188.5" style="stroke:#A80036;stroke-width:1.0;"/><!--MD5=[c63afe62681ac3dc699796dc5a561fdd]
link Slave1 to Slave1_4--><path d="M198.0355,208.0702 C215.4757,218.5606 237.1763,231.6135 255.9415,242.9009 " fill="none" id="Slave1-to-Slave1_4" style="stroke:#A80036;stroke-width:1.0;"/><polygon fill="#A80036" points="260.6447,245.7299,254.9942,237.6632,256.3601,243.1527,250.8706,244.5186,260.6447,245.7299" style="stroke:#A80036;stroke-width:1.0;"/><!--MD5=[3996275744fdee6ecf4fb7190b5dde59]
link Master to Slave2--><path d="M63.1996,605.9289 C84.3597,585.7764 115.3683,556.2445 137.6942,534.9817 " fill="none" id="Master-to-Slave2" style="stroke:#A80036;stroke-width:1.0;"/><polygon fill="#A80036" points="141.4782,531.3779,132.2023,534.6882,137.8575,534.8262,137.7196,540.4813,141.4782,531.3779" style="stroke:#A80036;stroke-width:1.0;"/><!--MD5=[30f7672255535c1639e838449297714e]
link Slave2 to Slave2_1--><path d="M181.6795,485.6651 C199.4962,460.9736 229.4202,420.8138 258,388.5 C261.9897,383.9891 266.3748,379.3592 270.741,374.9226 " fill="none" id="Slave2-to-Slave2_1" style="stroke:#A80036;stroke-width:1.0;"/><polygon fill="#A80036" points="274.3951,371.2482,265.2126,374.8093,270.8694,374.7936,270.8852,380.4504,274.3951,371.2482" style="stroke:#A80036;stroke-width:1.0;"/><!--MD5=[670fb0bfe65a75f88b10c6014e30cc95]
link Slave2 to Slave2_2--><path d="M198.0355,488.9298 C215.4757,478.4394 237.1763,465.3865 255.9415,454.0991 " fill="none" id="Slave2-to-Slave2_2" style="stroke:#A80036;stroke-width:1.0;"/><polygon fill="#A80036" points="260.6447,451.2701,250.8706,452.4814,256.3601,453.8473,254.9942,459.3368,260.6447,451.2701" style="stroke:#A80036;stroke-width:1.0;"/><!--MD5=[01d7a40a4dbd1d2137f045a1aeb48b7b]
link Slave2 to Slave2_3--><path d="M198.0355,508.5 C214.4843,508.5 234.723,508.5 252.7144,508.5 " fill="none" id="Slave2-to-Slave2_3" style="stroke:#A80036;stroke-width:1.0;"/><polygon fill="#A80036" points="257.7243,508.5,248.7243,504.5,252.7243,508.5,248.7243,512.5,257.7243,508.5" style="stroke:#A80036;stroke-width:1.0;"/><!--MD5=[3d6c6a0e949d52cc64d6111e1a143811]
link Slave2 to Slave2_4--><path d="M198.0355,528.0702 C215.4757,538.5606 237.1763,551.6135 255.9415,562.9009 " fill="none" id="Slave2-to-Slave2_4" style="stroke:#A80036;stroke-width:1.0;"/><polygon fill="#A80036" points="260.6447,565.7299,254.9942,557.6632,256.3601,563.1527,250.8706,564.5186,260.6447,565.7299" style="stroke:#A80036;stroke-width:1.0;"/><!--MD5=[a0df96df6d9e568bf689aa324eecacb6]
link Master to Slave3--><path d="M63.1996,651.0711 C84.3597,671.2236 115.3683,700.7555 137.6942,722.0183 " fill="none" id="Master-to-Slave3" style="stroke:#A80036;stroke-width:1.0;"/><polygon fill="#A80036" points="141.4782,725.6221,137.7196,716.5187,137.8575,722.1738,132.2023,722.3118,141.4782,725.6221" style="stroke:#A80036;stroke-width:1.0;"/><!--MD5=[8aa2e143065a54b75cebb4789e4896cc]
link Slave3 to Slave3_1--><path d="M198.0355,728.9298 C215.4757,718.4394 237.1763,705.3865 255.9415,694.0991 " fill="none" id="Slave3-to-Slave3_1" style="stroke:#A80036;stroke-width:1.0;"/><polygon fill="#A80036" points="260.6447,691.2701,250.8706,692.4814,256.3601,693.8473,254.9942,699.3368,260.6447,691.2701" style="stroke:#A80036;stroke-width:1.0;"/><!--MD5=[f68801b61f39aa8c6a15c6693c1bf716]
link Slave3 to Slave3_2--><path d="M198.0355,748.5 C214.4843,748.5 234.723,748.5 252.7144,748.5 " fill="none" id="Slave3-to-Slave3_2" style="stroke:#A80036;stroke-width:1.0;"/><polygon fill="#A80036" points="257.7243,748.5,248.7243,744.5,252.7243,748.5,248.7243,752.5,257.7243,748.5" style="stroke:#A80036;stroke-width:1.0;"/><!--MD5=[71ef97a825179c9dcc1287611867384f]
link Slave3 to Slave3_3--><path d="M198.0355,768.0702 C215.4757,778.5606 237.1763,791.6135 255.9415,802.9009 " fill="none" id="Slave3-to-Slave3_3" style="stroke:#A80036;stroke-width:1.0;"/><polygon fill="#A80036" points="260.6447,805.7299,254.9942,797.6632,256.3601,803.1527,250.8706,804.5186,260.6447,805.7299" style="stroke:#A80036;stroke-width:1.0;"/><!--MD5=[66b6bbcfb25c7e21491de8669af435f2]
link Slave3 to Slave3_4--><path d="M181.6795,771.3349 C199.4962,796.0264 229.4202,836.1862 258,868.5 C261.9897,873.0109 266.3748,877.6408 270.741,882.0774 " fill="none" id="Slave3-to-Slave3_4" style="stroke:#A80036;stroke-width:1.0;"/><polygon fill="#A80036" points="274.3951,885.7518,270.8852,876.5496,270.8694,882.2064,265.2126,882.1907,274.3951,885.7518" style="stroke:#A80036;stroke-width:1.0;"/><!--MD5=[87e4bcb77897cecdf5ffe68b66c0e452]
link Master to Slave4--><path d="M46.009,651.2298 C67.2371,725.3598 134.4208,959.9696 157.5698,1040.8071 " fill="none" id="Master-to-Slave4" style="stroke:#A80036;stroke-width:1.0;"/><polygon fill="#A80036" points="159.0299,1045.9061,160.3975,1036.1527,157.6533,1041.0993,152.7066,1038.3552,159.0299,1045.9061" style="stroke:#A80036;stroke-width:1.0;"/><!--MD5=[ff28d425f064958e372155869658d493]
link Slave4 to Slave4_1--><path d="M198.0355,1048.9298 C215.4757,1038.4394 237.1763,1025.3865 255.9415,1014.0991 " fill="none" id="Slave4-to-Slave4_1" style="stroke:#A80036;stroke-width:1.0;"/><polygon fill="#A80036" points="260.6447,1011.2701,250.8706,1012.4814,256.3601,1013.8473,254.9942,1019.3368,260.6447,1011.2701" style="stroke:#A80036;stroke-width:1.0;"/><!--MD5=[d0bdadaba075c7cb0cfc57d2cb497a16]
link Slave4 to Slave4_2--><path d="M198.0355,1068.5 C214.4843,1068.5 234.723,1068.5 252.7144,1068.5 " fill="none" id="Slave4-to-Slave4_2" style="stroke:#A80036;stroke-width:1.0;"/><polygon fill="#A80036" points="257.7243,1068.5,248.7243,1064.5,252.7243,1068.5,248.7243,1072.5,257.7243,1068.5" style="stroke:#A80036;stroke-width:1.0;"/><!--MD5=[b5bcf4a7e61975589c463cf4f27d919e]
link Slave4 to Slave4_3--><path d="M198.0355,1088.0702 C215.4757,1098.5606 237.1763,1111.6135 255.9415,1122.9009 " fill="none" id="Slave4-to-Slave4_3" style="stroke:#A80036;stroke-width:1.0;"/><polygon fill="#A80036" points="260.6447,1125.7299,254.9942,1117.6632,256.3601,1123.1527,250.8706,1124.5186,260.6447,1125.7299" style="stroke:#A80036;stroke-width:1.0;"/><!--MD5=[b85c44bc71174e2c3b0f076a5f2d5e0d]
link Slave4 to Slave4_4--><path d="M181.6795,1091.3349 C199.4962,1116.0264 229.4202,1156.1862 258,1188.5 C261.9897,1193.0109 266.3748,1197.6408 270.741,1202.0774 " fill="none" id="Slave4-to-Slave4_4" style="stroke:#A80036;stroke-width:1.0;"/><polygon fill="#A80036" points="274.3951,1205.7518,270.8852,1196.5496,270.8694,1202.2064,265.2126,1202.1907,274.3951,1205.7518" style="stroke:#A80036;stroke-width:1.0;"/><!--MD5=[386af623b4df6612c369afbaa209d238]
@startuml redis

left to right direction

database Master
database Slave1
database Slave1_1
database Slave1_2
database Slave1_3
database Slave1_4
database Slave2
database Slave2_1
database Slave2_2
database Slave2_3
database Slave2_4
database Slave3
database Slave3_1
database Slave3_2
database Slave3_3
database Slave3_4
database Slave4
database Slave4_1
database Slave4_2
database Slave4_3
database Slave4_4

Master - -> Slave1
Slave1 - -> Slave1_1
Slave1 - -> Slave1_2
Slave1 - -> Slave1_3
Slave1 - -> Slave1_4
Master - -> Slave2
Slave2 - -> Slave2_1
Slave2 - -> Slave2_2
Slave2 - -> Slave2_3
Slave2 - -> Slave2_4
Master - -> Slave3
Slave3 - -> Slave3_1
Slave3 - -> Slave3_2
Slave3 - -> Slave3_3
Slave3 - -> Slave3_4
Master - -> Slave4
Slave4 - -> Slave4_1
Slave4 - -> Slave4_2
Slave4 - -> Slave4_3
Slave4 - -> Slave4_4

@enduml

PlantUML version 1.2020.22(Sun Dec 06 09:36:27 UTC 2020)
(GPL source distribution)
Java Runtime: OpenJDK Runtime Environment
JVM: OpenJDK 64-Bit Server VM
Default Encoding: UTF-8
Language: en
Country: null
--></g></svg>